<svg width="75" height="56" viewBox="0 0 75 56" fill="none" xmlns="http://www.w3.org/2000/svg">
<g opacity="0.5">
<path d="M25 6.25V15.625M50 6.25V15.625M10.9375 28.4063L64.0625 28.4063M65.625 26.5625V53.125C65.625 62.5 60.9375 68.75 50 68.75H25C14.0625 68.75 9.375 62.5 9.375 53.125V26.5625C9.375 17.1875 14.0625 10.9375 25 10.9375L50 10.9375C60.9375 10.9375 65.625 17.1875 65.625 26.5625Z" stroke="#21C492" stroke-width="1.5" stroke-miterlimit="10" stroke-linecap="round" stroke-linejoin="round"/>
<path d="M49.0471 42.8125H49.0752M49.0471 52.1875H49.0752M37.4846 42.8125H37.5158M37.4846 52.1875H37.5158M25.9189 42.8125H25.9502M25.9189 52.1875H25.9502" stroke="#21C492" stroke-width="2" stroke-linecap="round" stroke-linejoin="round"/>
</g>
</svg>
