<svg width="24" height="24" viewBox="0 0 24 24" fill="none" xmlns="http://www.w3.org/2000/svg">
<path d="M12.0005 9V2M12.0005 2L10.0005 4M12.0005 2L14.0005 4M1.98047 13H6.39047C6.77047 13 7.11047 13.21 7.28047 13.55L8.45047 15.89C8.61605 16.2232 8.87129 16.5036 9.18751 16.6997C9.50373 16.8958 9.86838 16.9998 10.2405 17H13.7705C14.1426 16.9998 14.5072 16.8958 14.8234 16.6997C15.1396 16.5036 15.3949 16.2232 15.5605 15.89L16.7305 13.55C16.8136 13.3851 16.9407 13.2464 17.0978 13.1493C17.2549 13.0522 17.4358 13.0006 17.6205 13H21.9805" stroke="black" stroke-width="1.5" stroke-linecap="round" stroke-linejoin="round"/>
<path d="M7 5.12988C3.46 5.64988 2 7.72988 2 11.9999V14.9999C2 19.9999 4 21.9999 9 21.9999H15C20 21.9999 22 19.9999 22 14.9999V11.9999C22 7.72988 20.54 5.64988 17 5.12988" stroke="black" stroke-width="1.5" stroke-linecap="round" stroke-linejoin="round"/>
</svg>
