<svg width="48" height="48" viewBox="0 0 48 48" fill="none" xmlns="http://www.w3.org/2000/svg">
<path d="M24 41H14C8 41 4 38 4 31V17C4 10 8 7 14 7H34C40 7 44 10 44 17V23" stroke="#1272A5" stroke-width="1.5" stroke-miterlimit="10" stroke-linecap="round" stroke-linejoin="round"/>
<path d="M34 18L27.74 23C25.68 24.64 22.3 24.64 20.24 23L14 18M38.42 29.54L31.34 36.62C31.06 36.9 30.8 37.42 30.74 37.8L30.36 40.5C30.22 41.48 30.9 42.16 31.88 42.02L34.58 41.64C34.96 41.58 35.5 41.32 35.76 41.04L42.84 33.96C44.06 32.74 44.64 31.32 42.84 29.52C41.06 27.74 39.64 28.32 38.42 29.54Z" stroke="#1272A5" stroke-width="1.5" stroke-miterlimit="10" stroke-linecap="round" stroke-linejoin="round"/>
<path d="M37.4 30.5601C38 32.7201 39.68 34.4001 41.84 35.0001" stroke="#1272A5" stroke-width="1.5" stroke-miterlimit="10" stroke-linecap="round" stroke-linejoin="round"/>
</svg>
