<svg width="25" height="27" viewBox="0 0 25 27" fill="none" xmlns="http://www.w3.org/2000/svg">
<path d="M11.1477 1.65601L5.15522 11.2586M4.42591 1.65601H20.4707C21.8078 1.65601 22.9018 2.74997 22.9018 4.08704V6.76118C22.9018 7.73359 22.294 8.94911 21.6863 9.55687L16.4595 14.1758C15.7302 14.7836 15.244 15.9991 15.244 16.9715V22.1982C15.244 22.9276 14.7578 23.9 14.15 24.2646L12.4483 25.3586C10.8681 26.331 8.68022 25.237 8.68022 23.2922V16.85C8.68022 15.9991 8.19401 14.9051 7.7078 14.2974L3.08884 9.43532C2.48108 8.82756 1.99487 7.73359 1.99487 7.00428V4.20859C1.99487 2.74997 3.08884 1.65601 4.42591 1.65601Z" stroke="black" stroke-opacity="0.5" stroke-width="2.43103" stroke-miterlimit="10" stroke-linecap="round" stroke-linejoin="round"/>
</svg>
